<?xml version="1.0" encoding="utf-8"?>
<!-- Generator: Adobe Illustrator 16.0.0, SVG Export Plug-In . SVG Version: 6.00 Build 0)  -->
<!DOCTYPE svg PUBLIC "-//W3C//DTD SVG 1.1//EN" "http://www.w3.org/Graphics/SVG/1.1/DTD/svg11.dtd">
<svg version="1.1" id="Layer_1" xmlns="http://www.w3.org/2000/svg" xmlns:xlink="http://www.w3.org/1999/xlink" x="0px" y="0px"
	 width="48px" height="48px" viewBox="0 0 48 48" enable-background="new 0 0 48 48" xml:space="preserve">
<path d="M35.3,12.7C32.4,9.8,28.42,8,24,8C15.16,8,8.02,15.16,8.02,24S15.16,40,24,40c7.46,0,13.68-5.1,15.46-12H35.3
	c-1.64,4.66-6.079,8-11.3,8c-6.62,0-12-5.38-12-12s5.38-12,12-12c3.32,0,6.279,1.38,8.439,3.56L26,22h14V8L35.3,12.7z"/>
<path fill="none" d="M0,0h48v48H0V0z"/>
</svg>
